# xmcd CD database file
#
# Track frame offsets:
#	150
#	13964
#	35553
#	50918
#	63287
#	79810
#	96004
#	114835
#	129424
#	145945
#	161602
#	177748
#	192664
#	214907
#
# Disc length: 2901 seconds
#
# Revision: 0
# Processed by: cddbd v1.5PL3 Copyright (c) Steve Scherf et al.
# Submitted via: cdripper 1.0.7
#
DISCID=d00b530e
DTITLE=Katherine Davis - Dream Shoes
DYEAR=1999
DGENRE=Blues
TTITLE0=Blues and Bulls
TTITLE1=Try a Little Tenderness
TTITLE2=I Let a Song Go Out of My Heart
TTITLE3=You Choose
TTITLE4=The Darktown Strutters' Ball
TTITLE5=Press My Button
TTITLE6=What a Difference a Day Makes
TTITLE7=Honeysuckle Rose
TTITLE8=Don't You Know
TTITLE9=You Can't Ride My Train
TTITLE10=I Let a Song Go Out of My Heart
TTITLE11=You Gotta Know How
TTITLE12=He Is That Kind Friend
TTITLE13=Java Jive
EXTD=YEAR: 1999
EXTT0=
EXTT1=
EXTT2=
EXTT3=
EXTT4=
EXTT5=
EXTT6=
EXTT7=
EXTT8=
EXTT9=
EXTT10=
EXTT11=
EXTT12=
EXTT13=
PLAYORDER=
